<svg width="51" height="39" viewBox="0 0 51 39" fill="none" xmlns="http://www.w3.org/2000/svg">
<g opacity="0.25">
<path d="M4.89723 4.21944C2.03612 7.25833 0.5 10.6667 0.5 16.1917C0.5 25.9139 7.32222 34.6278 17.25 38.9361L19.7306 35.1083C10.4667 30.0972 8.65556 23.5944 7.93055 19.4944C9.42222 20.2667 11.375 20.5361 13.2917 20.3583C18.3028 19.8944 22.2528 15.7806 22.2528 10.6667C22.2528 8.08817 21.2285 5.61529 19.4052 3.79202C17.5819 1.96875 15.109 0.944443 12.5306 0.944443C9.55 0.944443 6.69723 2.30555 4.89723 4.21944ZM32.675 4.21944C29.8139 7.25833 28.2778 10.6667 28.2778 16.1917C28.2778 25.9139 35.1 34.6278 45.0278 38.9361L47.5083 35.1083C38.2444 30.0972 36.4333 23.5944 35.7111 19.4944C37.2028 20.2667 39.1556 20.5361 41.0694 20.3583C46.0806 19.8944 50.0278 15.7806 50.0278 10.6667C50.0278 8.08817 49.0035 5.61529 47.1802 3.79202C45.3569 1.96875 42.884 0.944443 40.3056 0.944443C37.325 0.944443 34.4722 2.30555 32.6722 4.21944H32.675Z" fill="url(#paint0_linear_2600_55)"/>
<path fill-rule="evenodd" clip-rule="evenodd" d="M4.89723 4.21944C2.03612 7.25833 0.5 10.6667 0.5 16.1917C0.5 25.9139 7.32222 34.6278 17.25 38.9361L19.7306 35.1083C10.4667 30.0972 8.65556 23.5944 7.93055 19.4944C9.42222 20.2667 11.375 20.5361 13.2917 20.3583C18.3028 19.8944 22.2528 15.7806 22.2528 10.6667C22.2528 8.08817 21.2285 5.61529 19.4052 3.79202C17.5819 1.96875 15.109 0.944443 12.5306 0.944443C9.55 0.944443 6.69723 2.30555 4.89723 4.21944ZM32.675 4.21944C29.8139 7.25833 28.2778 10.6667 28.2778 16.1917C28.2778 25.9139 35.1 34.6278 45.0278 38.9361L47.5083 35.1083C38.2444 30.0972 36.4333 23.5944 35.7111 19.4944C37.2028 20.2667 39.1556 20.5361 41.0694 20.3583C46.0806 19.8944 50.0278 15.7806 50.0278 10.6667C50.0278 8.08817 49.0035 5.61529 47.1802 3.79202C45.3569 1.96875 42.884 0.944443 40.3056 0.944443C37.325 0.944443 34.4722 2.30555 32.6722 4.21944H32.675Z" fill="url(#paint1_linear_2600_55)"/>
</g>
<defs>
<linearGradient id="paint0_linear_2600_55" x1="36.9996" y1="-11.6872" x2="13.1045" y2="97.3308" gradientUnits="userSpaceOnUse">
<stop stop-color="#F41170"/>
<stop offset="1" stop-color="#0021BA"/>
</linearGradient>
<linearGradient id="paint1_linear_2600_55" x1="36.9996" y1="-11.6872" x2="13.1045" y2="97.3308" gradientUnits="userSpaceOnUse">
<stop stop-color="#F41170"/>
<stop offset="1" stop-color="#0021BA"/>
</linearGradient>
</defs>
</svg>
